HIERARCHY
ROOT Hips
{
    OFFSET 0.000000 0.000000 0.000000
    CHANNELS 6 Xposition Yposition Zposition Zrotation Xrotation Yrotation
    JOINT Spine
    {
        OFFSET -0.000000 14.517291 0.000000
        CHANNELS 3 Zrotation Xrotation Yrotation
        JOINT Spine1
        {
            OFFSET -0.000000 37.558300 0.000000
            CHANNELS 3 Zrotation Xrotation Yrotation
            JOINT Neck
            {
                OFFSET -0.000000 37.404057 3.400369
                CHANNELS 3 Zrotation Xrotation Yrotation
                JOINT Head
                {
                    OFFSET -0.000000 24.785618 -3.540803
                    CHANNELS 3 Zrotation Xrotation Yrotation
                    End Site
                    {
                        OFFSET -0.000000 35.408028 0.000000
                    }
                }
            }
            JOINT LeftShoulder
            {
                OFFSET 6.992933 33.973492 -0.192664
                CHANNELS 3 Zrotation Xrotation Yrotation
                JOINT LeftArm
                {
                    OFFSET 21.527611 0.000000 0.000000
                    CHANNELS 3 Zrotation Xrotation Yrotation
                    JOINT LeftForeArm
                    {
                        OFFSET 56.353916 0.000000 0.000000
                        CHANNELS 3 Zrotation Xrotation Yrotation
                        JOINT LeftHand
                        {
                            OFFSET 47.774071 0.000000 0.000000
                            CHANNELS 3 Zrotation Xrotation Yrotation
                            End Site
                            {
                                OFFSET 26.556021 0.000000 0.000000
                            }
                        }
                    }
                }
            }
            JOINT RightShoulder
            {
                OFFSET -7.065357 33.973492 -0.192664
                CHANNELS 3 Zrotation Xrotation Yrotation
                JOINT RightArm
                {
                    OFFSET -21.527611 0.000000 0.000000
                    CHANNELS 3 Zrotation Xrotation Yrotation
                    JOINT RightForeArm
                    {
                        OFFSET -56.353916 0.000000 0.000000
                        CHANNELS 3 Zrotation Xrotation Yrotation
                        JOINT RightHand
                        {
                            OFFSET -47.774071 0.000000 0.000000
                            CHANNELS 3 Zrotation Xrotation Yrotation
                            End Site
                            {
                                OFFSET -26.556021 0.000000 0.000000
                            }
                        }
                    }
                }
            }
        }
    }
    JOINT LeftUpLeg
    {
        OFFSET 17.704014 0.000000 0.000000
        CHANNELS 3 Zrotation Xrotation Yrotation
        JOINT LeftLeg
        {
            OFFSET -0.000000 -81.181816 0.000000
            CHANNELS 3 Zrotation Xrotation Yrotation
            JOINT LeftFoot
            {
                OFFSET -0.000000 -62.821102 0.000000
                CHANNELS 3 Zrotation Xrotation Yrotation
                JOINT LeftToeBase
                {
                    OFFSET -0.000000 -11.507608 26.556021
                    CHANNELS 3 Zrotation Xrotation Yrotation
                    End Site
                    {
                        OFFSET -0.000000 0.000000 7.081605
                    }
                }
            }
        }
    }
    JOINT RightUpLeg
    {
        OFFSET -17.704014 0.000000 0.000000
        CHANNELS 3 Zrotation Xrotation Yrotation
        JOINT RightLeg
        {
            OFFSET -0.000000 -81.181816 0.000000
            CHANNELS 3 Zrotation Xrotation Yrotation
            JOINT RightFoot
            {
                OFFSET -0.000000 -62.821102 0.000000
                CHANNELS 3 Zrotation Xrotation Yrotation
                JOINT RightToeBase
                {
                    OFFSET -0.000000 -11.507608 26.556021
                    CHANNELS 3 Zrotation Xrotation Yrotation
                    End Site
                    {
                        OFFSET -0.000000 0.000000 7.081605
                    }
                }
            }
        }
    }
}
MOTION
Frames:    14
Frame Time:    0.008333
27.531713    156.697693    -35.003311    1.451094    -0.292983    -44.544189    4.640962    -0.144279    6.860397    -0.703941    0.905461    2.290314    15.759888    -7.775661    12.653467    -10.461506    11.759187    9.324659    8.602416    -0.145126    -17.499575    -15.597094    -11.410566    -50.185112    8.434352    -40.100483    -38.742165    -27.986755    -28.385782    -42.870274    -8.293229    1.054508    8.319292    36.697269    1.419665    83.546181    -6.781215    -35.300468    85.314644    17.342510    -25.892492    30.024189    16.666357    -20.001511    3.572146    -11.643984    17.636288    -3.292759    -8.060020    0.943260    38.395199    0.000000    0.000000    0.000000    -16.124533    1.217708    -6.845209    6.593701    25.617363    -2.641068    5.816982    -19.835939    -16.770000    0.000000    0.000000    0.000000    
27.532349    156.699951    -35.007988    1.453698    -0.291366    -44.554607    4.632495    -0.167296    6.819685    -0.704792    0.922574    2.276554    15.804403    -7.707960    12.686019    -10.505551    11.743491    9.355065    8.601444    -0.127884    -17.486004    -15.608089    -11.415134    -50.125214    8.408502    -40.082573    -38.804974    -27.934357    -28.394457    -42.844944    -8.218818    1.197532    8.242563    36.389141    1.779928    83.109802    -6.325651    -34.745983    85.561241    16.986994    -25.774963    29.700424    16.666384    -19.991108    3.591802    -11.632672    17.617744    -3.313566    -8.054941    0.956390    38.394627    0.000000    0.000000    0.000000    -16.121801    1.206088    -6.872190    6.566830    25.627745    -2.611439    5.833075    -19.836191    -16.758932    0.000000    0.000000    0.000000    
27.533194    156.700485    -35.008484    1.457616    -0.298597    -44.566936    4.626209    -0.193620    6.767657    -0.712580    0.946153    2.259050    15.820257    -7.632524    12.710409    -10.516354    11.727344    9.385674    8.591920    -0.104179    -17.459911    -15.608666    -11.411731    -50.062466    8.409904    -40.075230    -38.840553    -27.938023    -28.387423    -42.822281    -8.161448    1.383987    8.210563    36.172100    2.065125    82.642891    -5.783397    -34.069878    85.905006    16.780624    -25.510939    29.709976    16.663097    -19.972107    3.583464    -11.644018    17.586075    -3.276110    -8.061385    0.962916    38.395451    0.000000    0.000000    0.000000    -16.132002    1.203712    -6.851553    6.574263    25.624720    -2.614688    5.831361    -19.838131    -16.756380    0.000000    0.000000    0.000000    
27.534836    156.702408    -35.007656    1.465096    -0.305026    -44.581795    4.625939    -0.240370    6.717319    -0.728063    1.004849    2.242104    15.837462    -7.574170    12.742757    -10.527162    11.708808    9.421699    8.581772    -0.096137    -17.431892    -15.608264    -11.403446    -49.993111    8.404362    -40.086380    -38.893559    -27.939699    -28.401936    -42.804657    -8.101336    1.565349    8.181130    35.965897    2.305432    82.184013    -5.162422    -33.342209    86.275940    16.378967    -25.353811    29.434919    16.651991    -19.956593    3.592089    -11.634134    17.565435    -3.274553    -8.060633    0.970879    38.388199    0.000000    0.000000    0.000000    -16.144421    1.197120    -6.822980    6.588228    25.625124    -2.620912    5.823069    -19.841997    -16.778536    0.000000    0.000000    0.000000    
27.533066    156.704102    -35.007465    1.468311    -0.309095    -44.595894    4.612195    -0.285252    6.672966    -0.709289    1.070838    2.226948    15.843972    -7.531651    12.776796    -10.544708    11.687360    9.459098    8.568700    -0.096961    -17.394156    -15.639552    -11.415835    -49.943871    8.373249    -40.090698    -38.957684    -27.974808    -28.399014    -42.804428    -8.063407    1.753755    8.130990    35.849194    2.481372    81.746933    -4.430080    -32.492928    86.682312    15.906540    -25.185658    29.165672    16.648954    -19.941484    3.616818    -11.625635    17.550192    -3.269731    -8.067195    0.973558    38.373604    0.000000    0.000000    0.000000    -16.145025    1.191417    -6.827948    6.568419    25.630629    -2.601311    5.829478    -19.841818    -16.776121    0.000000    0.000000    0.000000    
27.532175    156.706665    -35.008106    1.475969    -0.311564    -44.613071    4.580733    -0.333247    6.644335    -0.673936    1.137975    2.216807    15.862726    -7.503358    12.803813    -10.579790    11.674232    9.484542    8.556477    -0.095553    -17.364155    -15.679036    -11.432958    -49.912319    8.348199    -40.080135    -39.019222    -27.964537    -28.399765    -42.782082    -8.011962    1.932002    8.062201    35.712212    2.664886    81.301773    -3.753851    -31.656759    87.074646    15.528785    -24.984104    28.831518    16.645306    -19.933762    3.632291    -11.619352    17.543041    -3.263686    -8.070777    0.974288    38.368774    0.000000    0.000000    0.000000    -16.151257    1.178452    -6.805126    6.567828    25.635235    -2.587707    5.819891    -19.844116    -16.797691    0.000000    0.000000    0.000000    
27.532324    156.707275    -35.006626    1.476345    -0.323071    -44.624905    4.564580    -0.361114    6.602221    -0.666365    1.193610    2.202634    15.896953    -7.465403    12.839285    -10.625389    11.659280    9.516218    8.564273    -0.087223    -17.332878    -15.733310    -11.468964    -49.869770    8.311126    -40.060806    -39.082706    -27.964094    -28.386150    -42.776825    -7.944715    2.083555    8.017231    35.586720    2.848898    80.827415    -3.057843    -30.806782    87.470711    15.280617    -24.741177    28.700623    16.635040    -19.918303    3.646042    -11.605807    17.538071    -3.292683    -8.074108    0.978083    38.384109    0.000000    0.000000    0.000000    -16.163164    1.181383    -6.782472    6.580272    25.635460    -2.627972    5.833553    -19.840818    -16.768093    0.000000    0.000000    0.000000    
27.533728    156.706314    -35.005543    1.476508    -0.330019    -44.643772    4.549458    -0.392284    6.564739    -0.647497    1.254145    2.189877    15.931602    -7.425171    12.882813    -10.684898    11.628019    9.554430    8.556055    -0.081461    -17.289083    -15.769838    -11.485740    -49.832527    8.285150    -40.052242    -39.146580    -27.943060    -28.388830    -42.771820    -7.887146    2.191498    7.976208    35.479588    3.056785    80.332825    -2.420946    -29.952206    87.842247    15.048028    -24.468414    28.452066    16.633673    -19.905552    3.662570    -11.602469    17.538750    -3.288951    -8.077697    0.968846    38.370270    0.000000    0.000000    0.000000    -16.166159    1.176660    -6.772727    6.565987    25.639355    -2.634450    5.835454    -19.846903    -16.746611    0.000000    0.000000    0.000000    
27.533072    156.704086    -35.006104    1.476293    -0.340540    -44.656769    4.529326    -0.414389    6.520462    -0.624411    1.299153    2.174816    15.933031    -7.371052    12.911051    -10.707181    11.586093    9.586384    8.544608    -0.076477    -17.249371    -15.802839    -11.488421    -49.777187    8.281133    -40.037888    -39.202034    -27.941772    -28.366671    -42.785210    -7.838102    2.302069    7.943123    35.357830    3.286120    79.840157    -1.767582    -29.153107    88.220139    14.843652    -24.260004    28.316059    16.631586    -19.895555    3.646612    -11.619121    17.535475    -3.246285    -8.076452    0.965690    38.377914    0.000000    0.000000    0.000000    -16.173922    1.172018    -6.760276    6.565894    25.658287    -2.599309    5.818448    -19.862637    -16.784262    0.000000    0.000000    0.000000    
27.534889    156.700241    -35.005112    1.473707    -0.352723    -44.674526    4.507701    -0.427979    6.487904    -0.591885    1.341308    2.163633    15.916601    -7.340504    12.936286    -10.708114    11.563447    9.618464    8.523188    -0.078977    -17.209740    -15.825489    -11.468287    -49.725677    8.282197    -40.045776    -39.266476    -27.929863    -28.376753    -42.778923    -7.799394    2.385885    7.893218    35.213593    3.567075    79.342247    -1.204742    -28.414368    88.612785    14.632501    -24.060671    28.078875    16.630360    -19.883595    3.645433    -11.628971    17.542561    -3.239190    -8.054377    0.964434    38.380409    0.000000    0.000000    0.000000    -16.183752    1.169220    -6.730340    6.570336    25.672651    -2.597834    5.817966    -19.871832    -16.789576    0.000000    0.000000    0.000000    
27.536934    156.694885    -35.004028    1.469272    -0.364763    -44.690670    4.483964    -0.429976    6.446987    -0.554457    1.362668    2.149662    15.901670    -7.277830    12.960197    -10.718441    11.507066    9.649715    8.494182    -0.068748    -17.160458    -15.822779    -11.411249    -49.669701    8.322655    -40.092159    -39.326893    -27.908451    -28.430410    -42.741123    -7.755511    2.460360    7.847447    35.087070    3.850037    78.835381    -0.627108    -27.634615    88.984116    14.341042    -23.857683    27.876177    16.628330    -19.872147    3.653896    -11.629147    17.554543    -3.234744    -8.057781    0.949853    38.380173    0.000000    0.000000    0.000000    -16.195013    1.169590    -6.698976    6.583150    25.681028    -2.629027    5.824508    -19.880440    -16.764854    0.000000    0.000000    0.000000    
27.538418    156.688904    -35.001637    1.469806    -0.370543    -44.707348    4.474141    -0.445216    6.405387    -0.535502    1.390530    2.135483    15.876258    -7.238828    12.985258    -10.700364    11.480310    9.685129    8.470884    -0.063356    -17.109051    -15.820863    -11.363711    -49.601173    8.321667    -40.136230    -39.415367    -27.912960    -28.481243    -42.710056    -7.700538    2.564208    7.786052    34.867294    4.167092    78.376190    -0.128270    -27.004040    89.334801    14.153848    -23.717806    27.723602    16.631939    -19.866751    3.649512    -11.640940    17.563128    -3.228711    -8.054352    0.935032    38.390285    0.000000    0.000000    0.000000    -16.202618    1.157928    -6.697967    6.578866    25.704269    -2.609514    5.816278    -19.891088    -16.777988    0.000000    0.000000    0.000000    
27.535831    156.683060    -34.998234    1.464345    -0.378781    -44.725483    4.449603    -0.453330    6.378255    -0.484158    1.411390    2.125834    15.821407    -7.180860    12.989533    -10.672091    11.417948    9.704865    8.421406    -0.055830    -17.080904    -15.807888    -11.306799    -49.535648    8.355424    -40.190090    -39.467304    -27.944685    -28.515272    -42.716827    -7.665849    2.694451    7.699815    34.750584    4.423818    77.934906    0.345546    -26.252802    89.671303    13.824598    -23.485594    27.459091    16.638111    -19.852970    3.645569    -11.654686    17.568432    -3.197837    -8.046155    0.922977    38.387177    0.000000    0.000000    0.000000    -16.207748    1.157696    -6.668322    6.586188    25.713144    -2.626713    5.826304    -19.899408    -16.764729    0.000000    0.000000    0.000000    
27.534883    156.677002    -34.991657    1.469755    -0.392616    -44.739388    4.419396    -0.474572    6.353094    -0.449214    1.448833    2.116894    15.774961    -7.136607    12.996040    -10.632495    11.364820    9.724510    8.395424    -0.045580    -17.044586    -15.819092    -11.269559    -49.496765    8.390350    -40.230293    -39.509796    -27.948637    -28.540230    -42.739201    -7.620348    2.845341    7.596553    34.583359    4.670363    77.517662    0.746975    -25.572117    89.963959    13.545904    -23.244608    27.282505    16.626757    -19.843317    3.663639    -11.650961    17.578575    -3.206890    -8.039364    0.910431    38.380009    0.000000    0.000000    0.000000    -16.226498    1.159022    -6.679104    6.579695    25.720617    -2.611494    5.821423    -19.916996    -16.750847    0.000000    0.000000    0.000000    
